<svg width="24" height="25" viewBox="0 0 24 25" fill="none" xmlns="http://www.w3.org/2000/svg">
<path d="M12 24.5C15.1826 24.5 18.2348 23.2357 20.4853 20.9853C22.7357 18.7348 24 15.6826 24 12.5C24 9.3174 22.7357 6.26516 20.4853 4.01472C18.2348 1.76428 15.1826 0.5 12 0.5C8.8174 0.5 5.76516 1.76428 3.51472 4.01472C1.26428 6.26516 0 9.3174 0 12.5C0 15.6826 1.26428 18.7348 3.51472 20.9853C5.76516 23.2357 8.8174 24.5 12 24.5ZM17.2969 10.2969L11.2969 16.2969C10.8562 16.7375 10.1438 16.7375 9.70781 16.2969L6.70781 13.2969C6.26719 12.8562 6.26719 12.1438 6.70781 11.7078C7.14844 11.2719 7.86094 11.2672 8.29688 11.7078L10.5 13.9109L15.7031 8.70312C16.1437 8.2625 16.8562 8.2625 17.2922 8.70312C17.7281 9.14375 17.7328 9.85625 17.2922 10.2922L17.2969 10.2969Z" fill="#332673"/>
</svg>
