<svg width="31" height="41" viewBox="0 0 31 41" fill="none" xmlns="http://www.w3.org/2000/svg">
<g clip-path="url(#clip0_152_182)">
<path d="M17.3516 39.5C21.3594 34.4844 30.5 22.3281 30.5 15.5C30.5 7.21875 23.7812 0.5 15.5 0.5C7.21875 0.5 0.5 7.21875 0.5 15.5C0.5 22.3281 9.64062 34.4844 13.6484 39.5C14.6094 40.6953 16.3906 40.6953 17.3516 39.5ZM15.5 10.5C16.8261 10.5 18.0979 11.0268 19.0355 11.9645C19.9732 12.9021 20.5 14.1739 20.5 15.5C20.5 16.8261 19.9732 18.0979 19.0355 19.0355C18.0979 19.9732 16.8261 20.5 15.5 20.5C14.1739 20.5 12.9021 19.9732 11.9645 19.0355C11.0268 18.0979 10.5 16.8261 10.5 15.5C10.5 14.1739 11.0268 12.9021 11.9645 11.9645C12.9021 11.0268 14.1739 10.5 15.5 10.5Z" fill="white"/>
</g>
<defs>
<clipPath id="clip0_152_182">
<rect width="30" height="40" fill="white" transform="translate(0.5 0.5)"/>
</clipPath>
</defs>
</svg>
