<svg width="198" height="51" viewBox="0 0 198 51" fill="none" xmlns="http://www.w3.org/2000/svg">
<path d="M25.4492 28.0078H7.12891C6.66016 28.0078 6.15234 27.9557 5.60547 27.8516C5.07161 27.7344 4.53776 27.5586 4.00391 27.3242C3.48307 27.0898 2.98177 26.7904 2.5 26.4258C2.01823 26.0482 1.58854 25.599 1.21094 25.0781C0.846354 24.5443 0.553385 23.9323 0.332031 23.2422C0.110677 22.5391 0 21.7513 0 20.8789V7.12891C0 6.66016 0.0520833 6.15885 0.15625 5.625C0.273438 5.07812 0.449219 4.54427 0.683594 4.02344C0.917969 3.48958 1.22396 2.98177 1.60156 2.5C1.97917 2.01823 2.42839 1.59505 2.94922 1.23047C3.48307 0.852865 4.09505 0.553385 4.78516 0.332031C5.47526 0.110677 6.25651 0 7.12891 0H25.4492V5.07812H7.12891C6.46484 5.07812 5.95703 5.25391 5.60547 5.60547C5.25391 5.95703 5.07812 6.47786 5.07812 7.16797V20.8789C5.07812 21.5299 5.25391 22.0378 5.60547 22.4023C5.97005 22.7539 6.47786 22.9297 7.12891 22.9297H25.4492V28.0078Z" fill="white"/>
<path d="M57.7344 28.0078H52.6562V21.1328H34.8047V28.0078H29.7266V14.0039C29.7266 11.9596 30.0781 10.0781 30.7812 8.35938C31.4844 6.64062 32.4609 5.16276 33.7109 3.92578C34.9609 2.6888 36.4388 1.72526 38.1445 1.03516C39.8503 0.345052 41.7122 0 43.7305 0H55.1758C55.5273 0 55.8594 0.0651042 56.1719 0.195312C56.4844 0.325521 56.7578 0.507812 56.9922 0.742188C57.2266 0.976562 57.4089 1.25 57.5391 1.5625C57.6693 1.875 57.7344 2.20703 57.7344 2.55859V28.0078ZM34.8047 16.0547H52.6562V5.07812H43.7305C43.5742 5.07812 43.2422 5.10417 42.7344 5.15625C42.2396 5.19531 41.6602 5.30599 40.9961 5.48828C40.3451 5.67057 39.6549 5.95052 38.9258 6.32812C38.1966 6.70573 37.526 7.22656 36.9141 7.89062C36.3021 8.55469 35.7943 9.38802 35.3906 10.3906C35 11.3802 34.8047 12.5846 34.8047 14.0039V16.0547Z" fill="white"/>
<path d="M88.9648 5.07812H77.7734V28.0078H72.6953V5.07812H61.4844V0H88.9648V5.07812Z" fill="white"/>
<path d="M120.703 9.41406C120.703 10.5729 120.56 11.6081 120.273 12.5195C119.987 13.431 119.596 14.2383 119.102 14.9414C118.62 15.6315 118.06 16.224 117.422 16.7188C116.784 17.2135 116.113 17.6237 115.41 17.9492C114.72 18.2617 114.017 18.4896 113.301 18.6328C112.598 18.776 111.934 18.8477 111.309 18.8477L121.914 28.0078H114.062L103.477 18.8477H99.8242V13.7695H111.309C111.947 13.7174 112.526 13.5872 113.047 13.3789C113.581 13.1576 114.036 12.8646 114.414 12.5C114.805 12.1354 115.104 11.6992 115.312 11.1914C115.521 10.6706 115.625 10.0781 115.625 9.41406V6.21094C115.625 5.92448 115.586 5.70964 115.508 5.56641C115.443 5.41016 115.352 5.29948 115.234 5.23438C115.13 5.15625 115.013 5.11068 114.883 5.09766C114.766 5.08464 114.655 5.07812 114.551 5.07812H97.793V28.0078H92.7148V2.55859C92.7148 2.20703 92.7799 1.875 92.9102 1.5625C93.0404 1.25 93.2161 0.976562 93.4375 0.742188C93.6719 0.507812 93.9453 0.325521 94.2578 0.195312C94.5703 0.0651042 94.9089 0 95.2734 0H114.551C115.684 0 116.641 0.208333 117.422 0.625C118.203 1.02865 118.835 1.54297 119.316 2.16797C119.811 2.77995 120.163 3.44401 120.371 4.16016C120.592 4.8763 120.703 5.54688 120.703 6.17188V9.41406Z" fill="white"/>
<path d="M153.281 28.0078H148.203V21.1328H130.352V28.0078H125.273V14.0039C125.273 11.9596 125.625 10.0781 126.328 8.35938C127.031 6.64062 128.008 5.16276 129.258 3.92578C130.508 2.6888 131.986 1.72526 133.691 1.03516C135.397 0.345052 137.259 0 139.277 0H150.723C151.074 0 151.406 0.0651042 151.719 0.195312C152.031 0.325521 152.305 0.507812 152.539 0.742188C152.773 0.976562 152.956 1.25 153.086 1.5625C153.216 1.875 153.281 2.20703 153.281 2.55859V28.0078ZM130.352 16.0547H148.203V5.07812H139.277C139.121 5.07812 138.789 5.10417 138.281 5.15625C137.786 5.19531 137.207 5.30599 136.543 5.48828C135.892 5.67057 135.202 5.95052 134.473 6.32812C133.743 6.70573 133.073 7.22656 132.461 7.89062C131.849 8.55469 131.341 9.38802 130.938 10.3906C130.547 11.3802 130.352 12.5846 130.352 14.0039V16.0547Z" fill="white"/>
<path d="M164.316 28.0078H159.238V0H164.316V28.0078Z" fill="white"/>
<path d="M197.734 28.0078H192.656V21.1328H174.805V28.0078H169.727V14.0039C169.727 11.9596 170.078 10.0781 170.781 8.35938C171.484 6.64062 172.461 5.16276 173.711 3.92578C174.961 2.6888 176.439 1.72526 178.145 1.03516C179.85 0.345052 181.712 0 183.73 0H195.176C195.527 0 195.859 0.0651042 196.172 0.195312C196.484 0.325521 196.758 0.507812 196.992 0.742188C197.227 0.976562 197.409 1.25 197.539 1.5625C197.669 1.875 197.734 2.20703 197.734 2.55859V28.0078ZM174.805 16.0547H192.656V5.07812H183.73C183.574 5.07812 183.242 5.10417 182.734 5.15625C182.24 5.19531 181.66 5.30599 180.996 5.48828C180.345 5.67057 179.655 5.95052 178.926 6.32812C178.197 6.70573 177.526 7.22656 176.914 7.89062C176.302 8.55469 175.794 9.38802 175.391 10.3906C175 11.3802 174.805 12.5846 174.805 14.0039V16.0547Z" fill="white"/>
<path d="M32.4683 41.1001C32.4342 40.7564 32.2879 40.4893 32.0293 40.299C31.7708 40.1087 31.42 40.0135 30.9768 40.0135C30.6756 40.0135 30.4214 40.0561 30.214 40.1413C30.0066 40.2237 29.8475 40.3388 29.7367 40.4865C29.6288 40.6342 29.5748 40.8018 29.5748 40.9893C29.5691 41.1456 29.6018 41.282 29.6728 41.3984C29.7467 41.5149 29.8475 41.6158 29.9754 41.701C30.1032 41.7834 30.2509 41.8558 30.4185 41.9183C30.5862 41.978 30.7651 42.0291 30.9555 42.0717L31.7396 42.2592C32.1203 42.3445 32.4697 42.4581 32.7879 42.6001C33.106 42.7422 33.3816 42.9169 33.6146 43.1243C33.8475 43.3317 34.0279 43.576 34.1558 43.8572C34.2864 44.1385 34.3532 44.4609 34.356 44.8246C34.3532 45.3587 34.2168 45.8217 33.947 46.2138C33.6799 46.603 33.2935 46.9055 32.7879 47.1214C32.285 47.3345 31.6785 47.4411 30.9683 47.4411C30.2637 47.4411 29.6501 47.3331 29.1274 47.1172C28.6075 46.9013 28.2012 46.5817 27.9086 46.1584C27.6188 45.7322 27.4668 45.2053 27.4526 44.5774H29.2381C29.258 44.87 29.3418 45.1143 29.4896 45.3104C29.6401 45.5036 29.8404 45.6499 30.0904 45.7493C30.3433 45.8459 30.6288 45.8942 30.947 45.8942C31.2595 45.8942 31.5308 45.8487 31.7609 45.7578C31.9938 45.6669 32.1742 45.5405 32.3021 45.3786C32.4299 45.2166 32.4938 45.0305 32.4938 44.8203C32.4938 44.6243 32.4356 44.4595 32.3191 44.326C32.2055 44.1925 32.0379 44.0788 31.8163 43.9851C31.5975 43.8913 31.3291 43.8061 31.0109 43.7294L30.0606 43.4908C29.3248 43.3118 28.7438 43.032 28.3177 42.6513C27.8916 42.2706 27.6799 41.7578 27.6828 41.1129C27.6799 40.5845 27.8205 40.1229 28.1046 39.728C28.3916 39.3331 28.785 39.0249 29.285 38.8033C29.785 38.5817 30.3532 38.4709 30.9896 38.4709C31.6373 38.4709 32.2026 38.5817 32.6856 38.8033C33.1714 39.0249 33.5492 39.3331 33.8191 39.728C34.089 40.1229 34.2282 40.5803 34.2367 41.1001H32.4683Z" fill="white"/>
<path d="M43.6171 42.9538C43.6171 43.9055 43.4367 44.7152 43.0759 45.3828C42.7179 46.0504 42.2293 46.5604 41.61 46.9126C40.9935 47.2621 40.3003 47.4368 39.5304 47.4368C38.7548 47.4368 38.0588 47.2607 37.4423 46.9084C36.8259 46.5561 36.3386 46.0462 35.9807 45.3786C35.6227 44.7109 35.4438 43.9027 35.4438 42.9538C35.4438 42.0021 35.6227 41.1925 35.9807 40.5249C36.3386 39.8572 36.8259 39.3487 37.4423 38.9993C38.0588 38.647 38.7548 38.4709 39.5304 38.4709C40.3003 38.4709 40.9935 38.647 41.61 38.9993C42.2293 39.3487 42.7179 39.8572 43.0759 40.5249C43.4367 41.1925 43.6171 42.0021 43.6171 42.9538ZM41.7463 42.9538C41.7463 42.3374 41.654 41.8175 41.4693 41.3942C41.2875 40.9709 41.0304 40.6499 40.698 40.4311C40.3656 40.2124 39.9764 40.103 39.5304 40.103C39.0844 40.103 38.6952 40.2124 38.3628 40.4311C38.0304 40.6499 37.7719 40.9709 37.5872 41.3942C37.4054 41.8175 37.3145 42.3374 37.3145 42.9538C37.3145 43.5703 37.4054 44.0902 37.5872 44.5135C37.7719 44.9368 38.0304 45.2578 38.3628 45.4766C38.6952 45.6953 39.0844 45.8047 39.5304 45.8047C39.9764 45.8047 40.3656 45.6953 40.698 45.4766C41.0304 45.2578 41.2875 44.9368 41.4693 44.5135C41.654 44.0902 41.7463 43.5703 41.7463 42.9538Z" fill="white"/>
<path d="M44.9839 47.3175V38.5902H46.8291V45.7962H50.5705V47.3175H44.9839Z" fill="white"/>
<path d="M57.1831 38.5902H59.0283V44.2578C59.0283 44.8942 58.8763 45.451 58.5723 45.9283C58.2712 46.4055 57.8493 46.7777 57.3067 47.0447C56.7641 47.3089 56.132 47.4411 55.4104 47.4411C54.6859 47.4411 54.0524 47.3089 53.5098 47.0447C52.9672 46.7777 52.5453 46.4055 52.2442 45.9283C51.943 45.451 51.7925 44.8942 51.7925 44.2578V38.5902H53.6377V44.1001C53.6377 44.4325 53.7101 44.728 53.855 44.9865C54.0027 45.245 54.2101 45.4482 54.4771 45.5959C54.7442 45.7436 55.0553 45.8175 55.4104 45.8175C55.7683 45.8175 56.0794 45.7436 56.3436 45.5959C56.6107 45.4482 56.8166 45.245 56.9615 44.9865C57.1092 44.728 57.1831 44.4325 57.1831 44.1001V38.5902Z" fill="white"/>
<path d="M68.2467 41.6456H66.3802C66.3461 41.4041 66.2765 41.1896 66.1714 41.0021C66.0663 40.8118 65.9313 40.6499 65.7666 40.5163C65.6018 40.3828 65.4114 40.2805 65.1955 40.2095C64.9825 40.1385 64.7509 40.103 64.5009 40.103C64.0492 40.103 63.6558 40.2152 63.3205 40.4396C62.9853 40.6612 62.7254 40.9851 62.5407 41.4112C62.356 41.8345 62.2637 42.3487 62.2637 42.9538C62.2637 43.576 62.356 44.0987 62.5407 44.522C62.7282 44.9453 62.9896 45.2649 63.3248 45.4808C63.66 45.6967 64.0478 45.8047 64.4881 45.8047C64.7353 45.8047 64.964 45.772 65.1742 45.7067C65.3873 45.6413 65.5762 45.5462 65.741 45.4212C65.9058 45.2933 66.0421 45.1385 66.1501 44.9567C66.2609 44.7749 66.3376 44.5675 66.3802 44.3345L68.2467 44.343C68.1984 44.7436 68.0776 45.13 67.8845 45.5021C67.6941 45.8714 67.437 46.2024 67.1131 46.495C66.7921 46.7848 66.4086 47.0149 65.9626 47.1854C65.5194 47.353 65.018 47.4368 64.4583 47.4368C63.6799 47.4368 62.9839 47.2607 62.3703 46.9084C61.7595 46.5561 61.2765 46.0462 60.9214 45.3786C60.5691 44.7109 60.393 43.9027 60.393 42.9538C60.393 42.0021 60.572 41.1925 60.9299 40.5249C61.2879 39.8572 61.7737 39.3487 62.3873 38.9993C63.0009 38.647 63.6913 38.4709 64.4583 38.4709C64.964 38.4709 65.4328 38.5419 65.8646 38.6839C66.2992 38.826 66.6842 39.0334 67.0194 39.3061C67.3546 39.576 67.6274 39.907 67.8376 40.299C68.0507 40.6911 68.187 41.1399 68.2467 41.6456ZM64.0024 47.2919H64.8376L64.7694 47.6626C65.062 47.7081 65.3006 47.8175 65.4853 47.9908C65.6728 48.1641 65.768 48.3999 65.7708 48.6982C65.7737 49.1214 65.5776 49.4581 65.1828 49.7081C64.7879 49.9609 64.2339 50.0874 63.5208 50.0874L63.5038 49.2777C63.8617 49.2777 64.1416 49.2337 64.3433 49.1456C64.5478 49.0604 64.6543 48.9268 64.6629 48.745C64.6685 48.5717 64.6018 48.4396 64.4626 48.3487C64.3234 48.2578 64.106 48.1939 63.8106 48.157L64.0024 47.2919Z" fill="white"/>
<path d="M77.5897 42.9538C77.5897 43.9055 77.4093 44.7152 77.0485 45.3828C76.6906 46.0504 76.2019 46.5604 75.5826 46.9126C74.9661 47.2621 74.2729 47.4368 73.5031 47.4368C72.7275 47.4368 72.0315 47.2607 71.415 46.9084C70.7985 46.5561 70.3113 46.0462 69.9533 45.3786C69.5954 44.7109 69.4164 43.9027 69.4164 42.9538C69.4164 42.0021 69.5954 41.1925 69.9533 40.5249C70.3113 39.8572 70.7985 39.3487 71.415 38.9993C72.0315 38.647 72.7275 38.4709 73.5031 38.4709C74.2729 38.4709 74.9661 38.647 75.5826 38.9993C76.2019 39.3487 76.6906 39.8572 77.0485 40.5249C77.4093 41.1925 77.5897 42.0021 77.5897 42.9538ZM75.719 42.9538C75.719 42.3374 75.6266 41.8175 75.442 41.3942C75.2602 40.9709 75.0031 40.6499 74.6707 40.4311C74.3383 40.2124 73.9491 40.103 73.5031 40.103C73.057 40.103 72.6678 40.2124 72.3354 40.4311C72.0031 40.6499 71.7445 40.9709 71.5599 41.3942C71.3781 41.8175 71.2872 42.3374 71.2872 42.9538C71.2872 43.5703 71.3781 44.0902 71.5599 44.5135C71.7445 44.9368 72.0031 45.2578 72.3354 45.4766C72.6678 45.6953 73.057 45.8047 73.5031 45.8047C73.9491 45.8047 74.3383 45.6953 74.6707 45.4766C75.0031 45.2578 75.2602 44.9368 75.442 44.5135C75.6266 44.0902 75.719 43.5703 75.719 42.9538ZM72.2801 37.7294L71.2744 37.7166C71.2744 37.174 71.4079 36.7578 71.6749 36.468C71.942 36.1783 72.2701 36.032 72.6593 36.0291C72.8582 36.0291 73.0286 36.0618 73.1707 36.1271C73.3127 36.1896 73.442 36.2635 73.5585 36.3487C73.6749 36.4339 73.7857 36.5092 73.8908 36.5746C73.996 36.6371 74.1096 36.6683 74.2318 36.6683C74.3965 36.6655 74.5215 36.6044 74.6068 36.4851C74.6948 36.3629 74.7389 36.2038 74.7389 36.0078L75.7318 36.0376C75.7261 36.5746 75.5897 36.9893 75.3227 37.282C75.0556 37.5717 74.7289 37.718 74.3426 37.7209C74.1323 37.7237 73.9548 37.6925 73.8099 37.6271C73.6678 37.5618 73.5428 37.4879 73.4349 37.4055C73.3269 37.3203 73.2218 37.245 73.1195 37.1797C73.0173 37.1143 72.9022 37.0817 72.7744 37.0817C72.6266 37.0817 72.5073 37.1399 72.4164 37.2564C72.3255 37.3729 72.2801 37.5305 72.2801 37.7294Z" fill="white"/>
<path d="M78.9565 47.3175V38.5902H84.8372V40.1115H80.8017V42.1911H84.5347V43.7124H80.8017V45.7962H84.8543V47.3175H78.9565Z" fill="white"/>
<path d="M91.0386 41.1001C91.0045 40.7564 90.8582 40.4893 90.5997 40.299C90.3411 40.1087 89.9903 40.0135 89.5471 40.0135C89.246 40.0135 88.9917 40.0561 88.7843 40.1413C88.5769 40.2237 88.4178 40.3388 88.307 40.4865C88.1991 40.6342 88.1451 40.8018 88.1451 40.9893C88.1394 41.1456 88.1721 41.282 88.2431 41.3984C88.317 41.5149 88.4178 41.6158 88.5457 41.701C88.6735 41.7834 88.8212 41.8558 88.9889 41.9183C89.1565 41.978 89.3354 42.0291 89.5258 42.0717L90.3099 42.2592C90.6906 42.3445 91.04 42.4581 91.3582 42.6001C91.6764 42.7422 91.9519 42.9169 92.1849 43.1243C92.4178 43.3317 92.5982 43.576 92.7261 43.8572C92.8568 44.1385 92.9235 44.4609 92.9264 44.8246C92.9235 45.3587 92.7872 45.8217 92.5173 46.2138C92.2502 46.603 91.8639 46.9055 91.3582 47.1214C90.8553 47.3345 90.2488 47.4411 89.5386 47.4411C88.834 47.4411 88.2204 47.3331 87.6977 47.1172C87.1778 46.9013 86.7715 46.5817 86.4789 46.1584C86.1891 45.7322 86.0372 45.2053 86.0229 44.5774H87.8085C87.8283 44.87 87.9122 45.1143 88.0599 45.3104C88.2104 45.5036 88.4107 45.6499 88.6607 45.7493C88.9136 45.8459 89.1991 45.8942 89.5173 45.8942C89.8298 45.8942 90.1011 45.8487 90.3312 45.7578C90.5641 45.6669 90.7445 45.5405 90.8724 45.3786C91.0002 45.2166 91.0641 45.0305 91.0641 44.8203C91.0641 44.6243 91.0059 44.4595 90.8894 44.326C90.7758 44.1925 90.6082 44.0788 90.3866 43.9851C90.1678 43.8913 89.8994 43.8061 89.5812 43.7294L88.6309 43.4908C87.8951 43.3118 87.3141 43.032 86.888 42.6513C86.4619 42.2706 86.2502 41.7578 86.2531 41.1129C86.2502 40.5845 86.3908 40.1229 86.6749 39.728C86.9619 39.3331 87.3553 39.0249 87.8553 38.8033C88.3553 38.5817 88.9235 38.4709 89.5599 38.4709C90.2076 38.4709 90.7729 38.5817 91.2559 38.8033C91.7417 39.0249 92.1195 39.3331 92.3894 39.728C92.6593 40.1229 92.7985 40.5803 92.807 41.1001H91.0386Z" fill="white"/>
<path d="M98.4491 47.3175H96.4718L99.4846 38.5902H101.862L104.871 47.3175H102.894L100.708 40.5845H100.639L98.4491 47.3175ZM98.3255 43.8871H102.996V45.3274H98.3255V43.8871Z" fill="white"/>
<path d="M105.921 38.5902H108.197L110.6 44.4538H110.703L113.106 38.5902H115.382V47.3175H113.592V41.6371H113.519L111.261 47.2749H110.042L107.784 41.6158H107.711V47.3175H105.921V38.5902Z" fill="white"/>
<path d="M116.902 47.3175V38.5902H120.396C121.038 38.5902 121.574 38.6854 122.003 38.8757C122.432 39.0661 122.754 39.3303 122.97 39.6683C123.186 40.0036 123.294 40.3899 123.294 40.8274C123.294 41.1683 123.226 41.468 123.089 41.7266C122.953 41.9822 122.765 42.1925 122.527 42.3572C122.291 42.5192 122.021 42.6342 121.717 42.7024V42.7876C122.05 42.8018 122.361 42.8956 122.65 43.0689C122.943 43.2422 123.18 43.4851 123.362 43.7976C123.544 44.1072 123.635 44.4766 123.635 44.9055C123.635 45.3686 123.52 45.782 123.29 46.1456C123.062 46.5064 122.726 46.7919 122.28 47.0021C121.834 47.2124 121.284 47.3175 120.631 47.3175H116.902ZM118.747 45.8089H120.251C120.765 45.8089 121.14 45.7109 121.376 45.5149C121.612 45.3161 121.73 45.0518 121.73 44.7223C121.73 44.4808 121.672 44.2678 121.555 44.0831C121.439 43.8984 121.273 43.7536 121.057 43.6484C120.844 43.5433 120.589 43.4908 120.294 43.4908H118.747V45.8089ZM118.747 42.2422H120.115C120.368 42.2422 120.592 42.1982 120.788 42.1101C120.987 42.0192 121.143 41.8913 121.257 41.7266C121.373 41.5618 121.432 41.3643 121.432 41.1342C121.432 40.8189 121.319 40.5646 121.095 40.3714C120.873 40.1783 120.558 40.0817 120.149 40.0817H118.747V42.2422Z" fill="white"/>
<path d="M126.681 38.5902V47.3175H124.835V38.5902H126.681Z" fill="white"/>
<path d="M128.199 47.3175V38.5902H134.079V40.1115H130.044V42.1911H133.777V43.7124H130.044V45.7962H134.096V47.3175H128.199Z" fill="white"/>
<path d="M142.846 38.5902V47.3175H141.252L137.455 41.8246H137.392V47.3175H135.546V38.5902H137.166L140.933 44.0788H141.009V38.5902H142.846Z" fill="white"/>
<path d="M144.038 40.1115V38.5902H151.206V40.1115H148.534V47.3175H146.71V40.1115H144.038Z" fill="white"/>
<path d="M152.824 47.3175H150.847L153.86 38.5902H156.237L159.246 47.3175H157.269L155.083 40.5845H155.014L152.824 47.3175ZM152.701 43.8871H157.371V45.3274H152.701V43.8871Z" fill="white"/>
<path d="M162.142 38.5902V47.3175H160.296V38.5902H162.142Z" fill="white"/>
<path d="M168.394 41.1001C168.36 40.7564 168.214 40.4893 167.955 40.299C167.697 40.1087 167.346 40.0135 166.903 40.0135C166.601 40.0135 166.347 40.0561 166.14 40.1413C165.932 40.2237 165.773 40.3388 165.663 40.4865C165.555 40.6342 165.501 40.8018 165.501 40.9893C165.495 41.1456 165.528 41.282 165.599 41.3984C165.672 41.5149 165.773 41.6158 165.901 41.701C166.029 41.7834 166.177 41.8558 166.344 41.9183C166.512 41.978 166.691 42.0291 166.881 42.0717L167.665 42.2592C168.046 42.3445 168.395 42.4581 168.714 42.6001C169.032 42.7422 169.307 42.9169 169.54 43.1243C169.773 43.3317 169.954 43.576 170.082 43.8572C170.212 44.1385 170.279 44.4609 170.282 44.8246C170.279 45.3587 170.143 45.8217 169.873 46.2138C169.606 46.603 169.219 46.9055 168.714 47.1214C168.211 47.3345 167.604 47.4411 166.894 47.4411C166.189 47.4411 165.576 47.3331 165.053 47.1172C164.533 46.9013 164.127 46.5817 163.834 46.1584C163.545 45.7322 163.393 45.2053 163.378 44.5774H165.164C165.184 44.87 165.268 45.1143 165.415 45.3104C165.566 45.5036 165.766 45.6499 166.016 45.7493C166.269 45.8459 166.555 45.8942 166.873 45.8942C167.185 45.8942 167.457 45.8487 167.687 45.7578C167.92 45.6669 168.1 45.5405 168.228 45.3786C168.356 45.2166 168.42 45.0305 168.42 44.8203C168.42 44.6243 168.361 44.4595 168.245 44.326C168.131 44.1925 167.964 44.0788 167.742 43.9851C167.523 43.8913 167.255 43.8061 166.937 43.7294L165.986 43.4908C165.251 43.3118 164.67 43.032 164.243 42.6513C163.817 42.2706 163.606 41.7578 163.609 41.1129C163.606 40.5845 163.746 40.1229 164.03 39.728C164.317 39.3331 164.711 39.0249 165.211 38.8033C165.711 38.5817 166.279 38.4709 166.915 38.4709C167.563 38.4709 168.128 38.5817 168.611 38.8033C169.097 39.0249 169.475 39.3331 169.745 39.728C170.015 40.1229 170.154 40.5803 170.163 41.1001H168.394Z" fill="white"/>
</svg>
