<svg width="33" height="24" viewBox="0 0 33 24" fill="none" xmlns="http://www.w3.org/2000/svg">
<path d="M4.6265 3C4.082 3 3.6365 3.45 3.6365 4V5.38125L14.3099 14.2313C15.5908 15.2938 17.4284 15.2938 18.7093 14.2313L29.3765 5.38125V4C29.3765 3.45 28.931 3 28.3865 3H4.6265ZM3.6365 9.2625V20C3.6365 20.55 4.082 21 4.6265 21H28.3865C28.931 21 29.3765 20.55 29.3765 20V9.2625L20.5903 16.55C18.2143 18.5187 14.7926 18.5187 12.4228 16.55L3.6365 9.2625ZM0.666504 4C0.666504 1.79375 2.44232 0 4.6265 0H28.3865C30.5707 0 32.3465 1.79375 32.3465 4V20C32.3465 22.2062 30.5707 24 28.3865 24H4.6265C2.44232 24 0.666504 22.2062 0.666504 20V4Z" fill="white"/>
</svg>
