<svg width="25" height="24" viewBox="0 0 25 24" fill="none" xmlns="http://www.w3.org/2000/svg">
<path d="M12.0335 5.8467C8.61949 5.8467 5.86576 8.594 5.86576 12C5.86576 15.406 8.61949 18.1533 12.0335 18.1533C15.4474 18.1533 18.2012 15.406 18.2012 12C18.2012 8.594 15.4474 5.8467 12.0335 5.8467ZM12.0335 16.0004C9.82727 16.0004 8.02366 14.2064 8.02366 12C8.02366 9.7936 9.8219 7.99955 12.0335 7.99955C14.245 7.99955 16.0433 9.7936 16.0433 12C16.0433 14.2064 14.2397 16.0004 12.0335 16.0004ZM19.8921 5.595C19.8921 6.39295 19.2479 7.03024 18.4535 7.03024C17.6537 7.03024 17.0149 6.38759 17.0149 5.595C17.0149 4.80241 17.659 4.15977 18.4535 4.15977C19.2479 4.15977 19.8921 4.80241 19.8921 5.595ZM23.977 7.05166C23.8858 5.12909 23.4456 3.42608 22.0339 2.02298C20.6275 0.619882 18.9205 0.180743 16.9934 0.0843468C15.0073 -0.0281156 9.05429 -0.0281156 7.06817 0.0843468C5.14647 0.175388 3.43948 0.614526 2.02772 2.01763C0.615966 3.42073 0.181166 5.12373 0.0845443 7.0463C-0.0281814 9.02778 -0.0281814 14.9669 0.0845443 16.9483C0.175798 18.8709 0.615966 20.5739 2.02772 21.977C3.43948 23.3801 5.1411 23.8193 7.06817 23.9157C9.05429 24.0281 15.0073 24.0281 16.9934 23.9157C18.9205 23.8246 20.6275 23.3855 22.0339 21.977C23.4402 20.5739 23.8804 18.8709 23.977 16.9483C24.0898 14.9669 24.0898 9.03314 23.977 7.05166ZM21.4112 19.0744C20.9925 20.1241 20.1819 20.9327 19.1245 21.3558C17.5409 21.9824 13.7834 21.8378 12.0335 21.8378C10.2835 21.8378 6.52065 21.977 4.94249 21.3558C3.89038 20.9381 3.07983 20.1294 2.65576 19.0744C2.02772 17.4946 2.17265 13.7458 2.17265 12C2.17265 10.2542 2.03309 6.50006 2.65576 4.92558C3.07446 3.87593 3.88501 3.06728 4.94249 2.6442C6.52601 2.01763 10.2835 2.16222 12.0335 2.16222C13.7834 2.16222 17.5463 2.02298 19.1245 2.6442C20.1766 3.06192 20.9871 3.87058 21.4112 4.92558C22.0392 6.50541 21.8943 10.2542 21.8943 12C21.8943 13.7458 22.0392 17.4999 21.4112 19.0744Z" fill="white"/>
</svg>
