<svg width="25" height="24" viewBox="0 0 25 24" fill="none" xmlns="http://www.w3.org/2000/svg">
<path d="M20.7389 3.4875C18.4942 1.2375 15.5049 0 12.3281 0C5.771 0 0.435282 5.33571 0.435282 11.8929C0.435282 13.9875 0.98171 16.0339 2.021 17.8393L0.333496 24L6.63885 22.3446C8.37457 23.2929 10.3299 23.7911 12.3228 23.7911H12.3281C18.8799 23.7911 24.3335 18.4554 24.3335 11.8982C24.3335 8.72143 22.9835 5.7375 20.7389 3.4875ZM12.3281 21.7875C10.5496 21.7875 8.8085 21.3107 7.29242 20.4107L6.9335 20.1964L3.19421 21.1768L4.19064 17.5286L3.95492 17.1536C2.96385 15.5786 2.44421 13.7625 2.44421 11.8929C2.44421 6.44464 6.87992 2.00893 12.3335 2.00893C14.9746 2.00893 17.4549 3.0375 19.3192 4.90714C21.1835 6.77679 22.3299 9.25714 22.3246 11.8982C22.3246 17.3518 17.7764 21.7875 12.3281 21.7875ZM17.7496 14.3839C17.4549 14.2339 15.9924 13.5161 15.7192 13.4196C15.446 13.3179 15.2478 13.2696 15.0496 13.5696C14.8514 13.8696 14.2835 14.5339 14.1067 14.7375C13.9353 14.9357 13.7585 14.9625 13.4639 14.8125C11.7174 13.9393 10.571 13.2536 9.41921 11.2768C9.11385 10.7518 9.72457 10.7893 10.2924 9.65357C10.3889 9.45536 10.3406 9.28393 10.2656 9.13393C10.1906 8.98393 9.596 7.52143 9.34957 6.92679C9.1085 6.34821 8.86207 6.42857 8.67993 6.41786C8.5085 6.40714 8.31028 6.40714 8.11207 6.40714C7.91385 6.40714 7.59242 6.48214 7.31921 6.77679C7.046 7.07679 6.27992 7.79464 6.27992 9.25714C6.27992 10.7196 7.346 12.1339 7.49064 12.3321C7.64064 12.5304 9.58528 15.5304 12.5692 16.8214C14.4549 17.6357 15.1942 17.7054 16.1371 17.5661C16.7103 17.4804 17.8942 16.8482 18.1406 16.1518C18.3871 15.4554 18.3871 14.8607 18.3121 14.7375C18.2424 14.6036 18.0442 14.5286 17.7496 14.3839Z" fill="white"/>
</svg>
