<svg width="56" height="56" viewBox="0 0 56 56" fill="none" xmlns="http://www.w3.org/2000/svg">
<rect width="56" height="56" rx="28" fill="#061308"/>
<path d="M31.3307 18.6683C33.0679 18.6683 34.4926 19.993 34.6509 21.6886L38.217 22.7842C39.2751 23.1092 40 24.0882 40 25.1963C40 26.1045 39.5126 26.9418 38.7211 27.3918L32.6971 30.812L36.5506 34.6655H38.6627C39.4001 34.6655 39.9958 35.2612 39.9958 35.9986C39.9958 36.736 39.4001 37.3317 38.6627 37.3317H35.9965C35.6424 37.3317 35.305 37.1901 35.055 36.9401L30.4517 32.3409C30.9391 30.8412 30.585 29.129 29.3935 27.9375C27.7021 26.2461 24.9651 26.2461 23.2737 27.9333L20.2076 30.8495C19.941 31.1036 19.9285 31.5244 20.1826 31.791C20.4367 32.0576 20.8575 32.0659 21.1241 31.816L24.1986 28.8915L24.2027 28.8873L24.2069 28.8832C24.3527 28.7374 24.511 28.6082 24.6777 28.4999C25.84 27.7292 27.423 27.8583 28.4478 28.8832C29.4768 29.9122 29.6018 31.5035 28.8228 32.67C28.7145 32.8283 28.5895 32.9825 28.4478 33.1241L26.9064 34.6655H30.6641C31.4015 34.6655 31.9972 35.2612 31.9972 35.9986C31.9972 36.736 31.4015 37.3317 30.6641 37.3317H18.6662C17.1956 37.3317 16 36.1361 16 34.6655C16 27.7334 21.2907 22.0385 28.0521 21.397C28.3395 19.8431 29.6976 18.6683 31.3307 18.6683ZM31.3307 23.0009C31.462 23.0009 31.592 22.975 31.7133 22.9247C31.8346 22.8745 31.9448 22.8009 32.0377 22.708C32.1305 22.6152 32.2041 22.505 32.2544 22.3836C32.3046 22.2623 32.3305 22.1323 32.3305 22.001C32.3305 21.8697 32.3046 21.7397 32.2544 21.6184C32.2041 21.4971 32.1305 21.3869 32.0377 21.294C31.9448 21.2012 31.8346 21.1276 31.7133 21.0773C31.592 21.0271 31.462 21.0012 31.3307 21.0012C31.1994 21.0012 31.0694 21.0271 30.9481 21.0773C30.8268 21.1276 30.7165 21.2012 30.6237 21.294C30.5308 21.3869 30.4572 21.4971 30.407 21.6184C30.3567 21.7397 30.3308 21.8697 30.3308 22.001C30.3308 22.1323 30.3567 22.2623 30.407 22.3836C30.4572 22.505 30.5308 22.6152 30.6237 22.708C30.7165 22.8009 30.8268 22.8745 30.9481 22.9247C31.0694 22.975 31.1994 23.0009 31.3307 23.0009Z" fill="white"/>
</svg>
