<svg width="56" height="56" viewBox="0 0 56 56" fill="none" xmlns="http://www.w3.org/2000/svg">
<rect width="56" height="56" rx="28" fill="#061308"/>
<path d="M20 12C17.7938 12 16 13.7938 16 16V30H23C23.3812 30 23.725 30.2125 23.8938 30.55L25 32.7625L28.1062 26.55C28.275 26.2125 28.625 26 29 26C29.375 26 29.725 26.2125 29.8938 26.55L31.6187 30H36C36.55 30 37 30.45 37 31C37 31.55 36.55 32 36 32H31C30.6187 32 30.275 31.7875 30.1063 31.45L29 29.2375L25.8938 35.45C25.725 35.7875 25.375 36 25 36C24.625 36 24.275 35.7875 24.1062 35.45L22.3813 32H16V40C16 42.2062 17.7938 44 20 44H36C38.2062 44 40 42.2062 40 40V22H32C30.8938 22 30 21.1062 30 20V12H20ZM32 12V20H40L32 12Z" fill="white"/>
</svg>
