<svg width="12" height="16" viewBox="0 0 12 16" fill="none" xmlns="http://www.w3.org/2000/svg">
<path d="M10.7066 4.70627C11.0973 4.31565 11.0973 3.68127 10.7066 3.29065C10.316 2.90002 9.68164 2.90002 9.29102 3.29065L6.00039 6.5844L2.70664 3.29377C2.31602 2.90315 1.68164 2.90315 1.29102 3.29377C0.900391 3.6844 0.900391 4.31877 1.29102 4.7094L4.58477 8.00002L1.29414 11.2938C0.903516 11.6844 0.903516 12.3188 1.29414 12.7094C1.68477 13.1 2.31914 13.1 2.70977 12.7094L6.00039 9.41565L9.29414 12.7063C9.68477 13.0969 10.3191 13.0969 10.7098 12.7063C11.1004 12.3156 11.1004 11.6813 10.7098 11.2906L7.41602 8.00002L10.7066 4.70627Z" fill="#999999"/>
</svg>
