<svg width="56" height="56" viewBox="0 0 56 56" fill="none" xmlns="http://www.w3.org/2000/svg">
<rect width="56" height="56" rx="28" fill="#061308"/>
<path d="M40 31.5472C36.5559 40.0918 28.3051 34.9225 28.3051 34.9225C25.7736 40.0355 21.592 43.3233 16.7665 43.3421C15.7602 43.3421 15.7289 41.8169 16.7665 41.8169C20.7919 41.7982 24.2985 39.1479 26.5925 34.935C24.0235 35.9289 19.1793 36.679 16.4915 29.797C23.3047 26.9905 26.4362 30.4971 27.6363 32.6411C28.2551 31.1159 28.6989 29.4595 28.9864 27.6593C28.9864 27.6593 20.2544 29.0282 19.6418 21.5275C27.0863 18.5335 29.1802 26.3217 29.1802 26.3217C29.2802 25.2779 29.3865 23.0339 29.3865 22.9839C29.3865 22.9839 22.7421 18.3772 27.005 12.6579C34.7932 15.3457 30.8429 22.8089 30.8429 22.8089C30.8741 22.9089 30.8741 24.2965 30.8429 24.8966C30.8429 24.8966 33.6681 19.3335 39.3687 21.3025C39.1062 29.6783 30.4991 27.9531 30.4991 27.9531C30.2241 29.6658 29.799 31.2909 29.249 32.7973C29.249 32.7973 34.437 27.0593 40 31.5472Z" fill="white"/>
</svg>
