<svg width="56" height="56" viewBox="0 0 56 56" fill="none" xmlns="http://www.w3.org/2000/svg">
<rect width="56" height="56" rx="28" fill="#66CC99"/>
<path d="M40 31.5473C36.5559 40.0918 28.3051 34.9226 28.3051 34.9226C25.7736 40.0356 21.592 43.3234 16.7665 43.3421C15.7602 43.3421 15.7289 41.817 16.7665 41.817C20.7919 41.7983 24.2985 39.148 26.5925 34.9351C24.0235 35.9289 19.1793 36.679 16.4915 29.7971C23.3047 26.9906 26.4362 30.4972 27.6363 32.6411C28.2551 31.116 28.6989 29.4596 28.9864 27.6594C28.9864 27.6594 20.2544 29.0283 19.6418 21.5276C27.0863 18.5335 29.1802 26.3218 29.1802 26.3218C29.2802 25.2779 29.3865 23.034 29.3865 22.9839C29.3865 22.9839 22.7421 18.3773 27.005 12.658C34.7932 15.3457 30.8429 22.8089 30.8429 22.8089C30.8741 22.9089 30.8741 24.2966 30.8429 24.8966C30.8429 24.8966 33.6681 19.3336 39.3687 21.3025C39.1062 29.6783 30.4991 27.9532 30.4991 27.9532C30.2241 29.6658 29.799 31.291 29.249 32.7974C29.249 32.7974 34.437 27.0593 40 31.5473Z" fill="#332673"/>
</svg>
