<svg width="56" height="56" viewBox="0 0 56 56" fill="none" xmlns="http://www.w3.org/2000/svg">
<rect width="56" height="56" rx="28" fill="#66CC99"/>
<path d="M31.3307 18.6682C33.0679 18.6682 34.4926 19.993 34.6509 21.6885L38.217 22.7842C39.2751 23.1091 40 24.0881 40 25.1962C40 26.1044 39.5126 26.9418 38.7211 27.3917L32.6971 30.8119L36.5506 34.6654H38.6627C39.4001 34.6654 39.9958 35.2612 39.9958 35.9985C39.9958 36.7359 39.4001 37.3316 38.6627 37.3316H35.9965C35.6424 37.3316 35.305 37.19 35.055 36.94L30.4517 32.3408C30.9391 30.8411 30.585 29.1289 29.3935 27.9374C27.7021 26.2461 24.9651 26.2461 23.2737 27.9333L20.2076 30.8494C19.941 31.1036 19.9285 31.5243 20.1826 31.7909C20.4367 32.0576 20.8575 32.0659 21.1241 31.8159L24.1986 28.8914L24.2027 28.8873L24.2069 28.8831C24.3527 28.7373 24.511 28.6082 24.6777 28.4998C25.84 27.7291 27.423 27.8583 28.4478 28.8831C29.4768 29.9121 29.6018 31.5035 28.8228 32.6699C28.7145 32.8283 28.5895 32.9824 28.4478 33.124L26.9064 34.6654H30.6641C31.4015 34.6654 31.9972 35.2612 31.9972 35.9985C31.9972 36.7359 31.4015 37.3316 30.6641 37.3316H18.6662C17.1956 37.3316 16 36.136 16 34.6654C16 27.7333 21.2907 22.0385 28.0521 21.3969C28.3395 19.843 29.6976 18.6682 31.3307 18.6682ZM31.3307 23.0008C31.462 23.0008 31.592 22.9749 31.7133 22.9247C31.8346 22.8744 31.9448 22.8008 32.0377 22.708C32.1305 22.6151 32.2041 22.5049 32.2544 22.3836C32.3046 22.2623 32.3305 22.1323 32.3305 22.001C32.3305 21.8697 32.3046 21.7397 32.2544 21.6184C32.2041 21.497 32.1305 21.3868 32.0377 21.294C31.9448 21.2011 31.8346 21.1275 31.7133 21.0772C31.592 21.027 31.462 21.0011 31.3307 21.0011C31.1994 21.0011 31.0694 21.027 30.9481 21.0772C30.8268 21.1275 30.7165 21.2011 30.6237 21.294C30.5308 21.3868 30.4572 21.497 30.407 21.6184C30.3567 21.7397 30.3308 21.8697 30.3308 22.001C30.3308 22.1323 30.3567 22.2623 30.407 22.3836C30.4572 22.5049 30.5308 22.6151 30.6237 22.708C30.7165 22.8008 30.8268 22.8744 30.9481 22.9247C31.0694 22.9749 31.1994 23.0008 31.3307 23.0008Z" fill="#332673"/>
</svg>
